<?xml version="1.0" encoding="iso-8859-1"?>
<!-- Generator: Adobe Illustrator 19.0.0, SVG Export Plug-In . SVG Version: 6.00 Build 0)  -->
<svg version="1.1" id="Capa_1" xmlns="http://www.w3.org/2000/svg" xmlns:xlink="http://www.w3.org/1999/xlink" x="0px" y="0px"
	 viewBox="0 0 512 512" style="enable-background:new 0 0 512 512;" xml:space="preserve">
<g>
	<g>
		<path d="M196,241c-8.276,0-15,6.724-15,15s6.724,15,15,15s15-6.724,15-15S204.276,241,196,241z"/>
	</g>
</g>
<g>
	<g>
		<path d="M378.816,86.605l-73.421-73.421c-1.359-1.359-2.9-2.452-4.395-3.613V91h81.429
			C381.268,89.506,380.175,87.964,378.816,86.605z"/>
	</g>
</g>
<g>
	<g>
		<path d="M269.596,269.638c0.82-4.438,1.406-8.965,1.406-13.638c0-4.673-0.586-9.199-1.406-13.638
			c-1.157-6.24,1.758-12.539,7.251-15.718l17.578-10.151l-15-25.986l-17.798,10.283c-5.464,3.164-12.393,2.52-17.227-1.567
			c-7.031-5.991-14.912-10.562-23.423-13.579c-5.977-2.124-9.976-7.793-9.976-14.136V151h-30v20.508
			c0,6.343-3.999,12.012-9.976,14.136c-8.511,3.018-16.392,7.588-23.423,13.579c-4.834,4.087-11.763,4.731-17.227,1.567
			l-17.798-10.283l-15,25.986l17.578,10.151c5.493,3.179,8.408,9.478,7.251,15.718C121.586,246.801,121,251.327,121,256
			c0,4.673,0.586,9.199,1.406,13.638c1.157,6.24-1.758,12.539-7.251,15.718l-17.578,10.151l15,25.986l17.798-10.283
			c5.464-3.149,12.393-2.534,17.227,1.567c7.031,5.991,14.912,10.562,23.423,13.579c5.977,2.124,9.976,7.793,9.976,14.136V361h30
			v-20.508c0-6.343,3.999-12.012,9.976-14.136c8.511-3.018,16.392-7.588,23.423-13.579c4.834-4.102,11.763-4.717,17.227-1.567
			l17.798,10.283l15-25.986l-17.578-10.151C271.354,282.177,268.439,275.878,269.596,269.638z M196,301c-24.814,0-45-20.186-45-45
			c0-24.814,20.186-45,45-45c24.814,0,45,20.186,45,45C241,280.814,220.814,301,196,301z"/>
	</g>
</g>
<g>
	<g>
		<path d="M286,121c-8.291,0-15-6.709-15-15V0H45C20.186,0,0,21.186,0,46v360c0,24.814,20.186,45,45,45h176.459l86.221,58.48
			c4.651,3.101,10.586,3.327,15.396,0.747C327.953,507.62,331,502.537,331,497v-46h15c24.814,0,46-20.186,46-45V121H286z
			 M301,256.001c0,2.842-0.146,5.654-0.396,8.423l21.812,12.598c7.178,4.146,9.639,13.315,5.493,20.493l-30,51.973
			c-1.992,3.442-5.273,5.962-9.111,6.987c-3.853,1.011-7.939,0.483-11.382-1.494l-22.119-12.788
			c-4.556,3.149-9.331,5.918-14.297,8.291V376c0,8.291-6.709,15-15,15h-60c-8.291,0-15-6.709-15-15v-25.518
			c-4.966-2.373-9.741-5.142-14.297-8.291l-22.119,12.788c-3.442,1.978-7.573,2.505-11.382,1.494
			c-3.838-1.025-7.119-3.545-9.111-6.987l-30-51.973c-4.146-7.178-1.685-16.348,5.493-20.493l21.812-12.598
			C91.147,261.654,91,258.842,91,256s0.146-5.654,0.396-8.423l-21.812-12.598c-7.178-4.146-9.639-13.315-5.493-20.493l30-51.973
			c1.992-3.442,5.273-5.962,9.111-6.987c3.809-1.025,7.939-0.498,11.382,1.494l22.119,12.788c4.556-3.149,9.331-5.918,14.297-8.291
			V136c0-8.291,6.709-15,15-15h60c8.291,0,15,6.709,15,15v25.518c4.966,2.373,9.741,5.142,14.297,8.291l22.119-12.788
			c3.442-1.992,7.529-2.52,11.382-1.494c3.838,1.025,7.119,3.545,9.111,6.987l30,51.973c4.146,7.178,1.685,16.348-5.493,20.493
			l-21.812,12.598C300.853,250.347,301,253.159,301,256.001z"/>
	</g>
</g>
<g>
	<g>
		<path d="M467,30c-24.814,0-45,21.186-45,46v45h90V76C512,51.186,491.814,30,467,30z"/>
	</g>
</g>
<g>
	<g>
		<rect x="422" y="151" width="90" height="210"/>
	</g>
</g>
<g>
	<g>
		<path d="M426.186,391l26.591,79.746C454.813,476.869,460.54,481,467,481c6.46,0,12.188-4.131,14.224-10.254L507.814,391H426.186z"
			/>
	</g>
</g>
<g>
</g>
<g>
</g>
<g>
</g>
<g>
</g>
<g>
</g>
<g>
</g>
<g>
</g>
<g>
</g>
<g>
</g>
<g>
</g>
<g>
</g>
<g>
</g>
<g>
</g>
<g>
</g>
<g>
</g>
</svg>
