<svg height="512" viewBox="0 0 64 64" width="512" xmlns="http://www.w3.org/2000/svg"><g id="setting"><path d="m61.76 54.35a1.011 1.011 0 0 0 -.76-.35h-1v-33a3.009 3.009 0 0 0 -3-3h-1v-.9a1.013 1.013 0 0 0 -.88-1l-2.4-.3 1.49-1.91a1 1 0 0 0 -.09-1.32l-2.69-2.69a.994.994 0 0 0 -1.32-.09l-1.91 1.49-.3-2.4a1.013 1.013 0 0 0 -1-.88h-3.8a1.013 1.013 0 0 0 -1 .88l-.3 2.4-1.91-1.49a.994.994 0 0 0 -1.32.09l-2.69 2.69a1 1 0 0 0 -.09 1.32l1.49 1.91-2.4.3a1.013 1.013 0 0 0 -.88 1v.9h-27a3.009 3.009 0 0 0 -3 3v33h-1a1.011 1.011 0 0 0 -.76.35 1.039 1.039 0 0 0 -.23.81l.73 4.33a2.978 2.978 0 0 0 2.95 2.51h52.62a2.978 2.978 0 0 0 2.95-2.51l.73-4.33a1.039 1.039 0 0 0 -.23-.81zm-25.76-36.37 2.37-.3a1 1 0 0 0 .82-.67c.09-.24.19-.48.3-.71a.979.979 0 0 0 -.11-1.05l-1.47-1.89 1.45-1.45 1.89 1.47a.979.979 0 0 0 1.05.11c.23-.11.47-.21.71-.3a1 1 0 0 0 .67-.82l.3-2.37h2.04l.3 2.37a1 1 0 0 0 .67.82c.24.09.48.19.71.3a.979.979 0 0 0 1.05-.11l1.89-1.47 1.45 1.45-1.47 1.89a.979.979 0 0 0 -.11 1.05c.11.23.21.47.3.71a1 1 0 0 0 .82.67l2.37.3v2.04l-2.37.3a1 1 0 0 0 -.82.67c-.09.24-.19.48-.3.71a.979.979 0 0 0 .11 1.05l1.47 1.89-1.45 1.45-1.89-1.47a.979.979 0 0 0 -1.05-.11c-.23.11-.47.21-.71.3a1 1 0 0 0 -.67.82l-.3 2.37h-2.04l-.3-2.37a1 1 0 0 0 -.67-.82c-.24-.09-.48-.19-.71-.3a.979.979 0 0 0 -1.05.11l-1.89 1.47-1.45-1.45 1.47-1.89a.979.979 0 0 0 .11-1.05c-.11-.23-.21-.47-.3-.71a1 1 0 0 0 -.82-.67l-2.37-.3zm-30 3.02a1 1 0 0 1 1-1h27v.9a1.013 1.013 0 0 0 .88 1l2.4.3-1.49 1.91a1 1 0 0 0 .09 1.32l2.69 2.69a.994.994 0 0 0 1.32.09l1.91-1.49.3 2.4a1.013 1.013 0 0 0 1 .88h3.8a1.013 1.013 0 0 0 1-.88l.3-2.4 1.91 1.49a.994.994 0 0 0 1.32-.09l2.69-2.69a1 1 0 0 0 .09-1.32l-1.49-1.91 2.4-.3a1.013 1.013 0 0 0 .88-1v-.9h1a1 1 0 0 1 1 1v33h-22a1 1 0 0 0 -1 1v1h-6v-1a1 1 0 0 0 -1-1h-22zm53.29 38.16a.989.989 0 0 1 -.98.84h-52.62a.989.989 0 0 1 -.98-.84l-.53-3.16h22.82v1a1 1 0 0 0 1 1h8a1 1 0 0 0 1-1v-1h22.82z"/><path d="m29.12 36.1-2.4-.3 1.49-1.91a1 1 0 0 0 -.09-1.32l-2.69-2.69a1 1 0 0 0 -1.32-.09l-1.91 1.49-.3-2.4a1.013 1.013 0 0 0 -1-.88h-3.8a1.013 1.013 0 0 0 -1 .88l-.3 2.4-1.91-1.49a.994.994 0 0 0 -1.32.09l-2.69 2.69a1 1 0 0 0 -.09 1.32l1.49 1.91-2.4.3a1.013 1.013 0 0 0 -.88 1v3.8a1.013 1.013 0 0 0 .88 1l2.4.3-1.49 1.91a1 1 0 0 0 .09 1.32l2.69 2.69a.994.994 0 0 0 1.32.09l1.91-1.49.3 2.4a1.013 1.013 0 0 0 1 .88h3.8a1.013 1.013 0 0 0 1-.88l.3-2.4 1.91 1.49a1 1 0 0 0 1.32-.09l2.69-2.69a1 1 0 0 0 .09-1.32l-1.49-1.91 2.4-.3a1.013 1.013 0 0 0 .88-1v-3.8a1.013 1.013 0 0 0 -.88-1zm-1.12 3.92-2.37.3a1 1 0 0 0 -.82.67c-.09.24-.19.48-.3.71a.979.979 0 0 0 .11 1.05l1.47 1.89-1.45 1.45-1.89-1.47a.979.979 0 0 0 -1.05-.11c-.23.11-.47.21-.71.3a1 1 0 0 0 -.67.82l-.3 2.37h-2.04l-.3-2.37a1 1 0 0 0 -.67-.82c-.24-.09-.48-.19-.71-.3a.979.979 0 0 0 -1.05.11l-1.89 1.47-1.45-1.45 1.47-1.89a.979.979 0 0 0 .11-1.05c-.11-.23-.21-.47-.3-.71a1 1 0 0 0 -.82-.67l-2.37-.3v-2.04l2.37-.3a1 1 0 0 0 .82-.67c.09-.24.19-.48.3-.71a.979.979 0 0 0 -.11-1.05l-1.47-1.89 1.45-1.45 1.89 1.47a.979.979 0 0 0 1.05.11c.23-.11.47-.21.71-.3a1 1 0 0 0 .67-.82l.3-2.37h2.04l.3 2.37a1 1 0 0 0 .67.82c.24.09.48.19.71.3a.979.979 0 0 0 1.05-.11l1.89-1.47 1.45 1.45-1.47 1.89a.979.979 0 0 0 -.11 1.05c.11.23.21.47.3.71a1 1 0 0 0 .82.67l2.37.3z"/><path d="m19 34a5 5 0 1 0 5 5 5.006 5.006 0 0 0 -5-5zm0 8a3 3 0 1 1 3-3 3 3 0 0 1 -3 3z"/><path d="m45 24a5 5 0 1 0 -5-5 5.006 5.006 0 0 0 5 5zm0-8a3 3 0 1 1 -3 3 3 3 0 0 1 3-3z"/><path d="m18 22h2v4h-2z"/><path d="m20 4h24v2h2v-3a1 1 0 0 0 -1-1h-26a1 1 0 0 0 -1 1v13h2z"/><path d="m46 39v-7h-2v6h-12v2h13a1 1 0 0 0 1-1z"/><path d="m44 46h12v2h-12z"/><path d="m36 46h6v2h-6z"/><path d="m36 50h20v2h-20z"/><path d="m36 42h20v2h-20z"/></g></svg>